<svg width="800" height="600" viewBox="0 0 800 600" xmlns="http://www.w3.org/2000/svg">
  <!-- 开发者工作桌面插图 -->
  <rect x="100" y="150" width="600" height="350" rx="20" fill="#f0f0f0" />
  
  <!-- 电脑显示器 -->
  <rect x="200" y="200" width="400" height="250" rx="10" fill="#333" />
  <rect x="210" y="210" width="380" height="220" rx="5" fill="#4361ee" />
  
  <!-- 代码区域 -->
  <rect x="230" y="230" width="340" height="180" rx="3" fill="#111" />
  
  <!-- 代码线条 -->
  <line x1="250" y1="250" x2="350" y2="250" stroke="#00ff00" stroke-width="2" />
  <line x1="250" y1="270" x2="400" y2="270" stroke="#00ff00" stroke-width="2" />
  <line x1="250" y1="290" x2="320" y2="290" stroke="#00ff00" stroke-width="2" />
  <line x1="280" y1="310" x2="450" y2="310" stroke="#ff9900" stroke-width="2" />
  <line x1="280" y1="330" x2="380" y2="330" stroke="#ff9900" stroke-width="2" />
  <line x1="250" y1="350" x2="420" y2="350" stroke="#00ff00" stroke-width="2" />
  <line x1="250" y1="370" x2="360" y2="370" stroke="#00ff00" stroke-width="2" />
  
  <!-- 显示器底座 -->
  <rect x="350" y="450" width="100" height="20" rx="5" fill="#333" />
  <rect x="380" y="470" width="40" height="10" rx="2" fill="#222" />
  
  <!-- 办公桌 -->
  <rect x="100" y="480" width="600" height="20" fill="#8d6e63" />
  
  <!-- 咖啡杯 -->
  <rect x="550" y="420" width="30" height="40" rx="5" fill="#d50000" />
  <rect x="545" y="420" width="40" height="10" rx="5" fill="#d50000" />
  
  <!-- 开发者 -->
  <circle cx="400" cy="140" r="40" fill="#ffb74d" />
  <rect x="380" y="180" width="40" height="60" fill="#3949ab" />
  
  <!-- 眼镜 -->
  <line x1="380" y1="140" x2="420" y2="140" stroke="#333" stroke-width="2" />
  <circle cx="380" cy="140" r="10" fill="none" stroke="#333" stroke-width="2" />
  <circle cx="420" cy="140" r="10" fill="none" stroke="#333" stroke-width="2" />
</svg> 